<?xml version="1.0" encoding="UTF-8"?>
<svg width="316px" height="79px" viewBox="0 0 316 79" version="1.1" xmlns="http://www.w3.org/2000/svg" xmlns:xlink="http://www.w3.org/1999/xlink">
    <!-- Generator: Sketch 51.3 (57544) - http://www.bohemiancoding.com/sketch -->
    <title>LogoDefinitivo</title>
    <desc>Created with Sketch.</desc>
    <defs></defs>
    <g id="Page-1" stroke="none" stroke-width="1" fill="none" fill-rule="evenodd">
        <g id="Home" transform="translate(-16.000000, -141.000000)" fill-rule="nonzero">
            <g id="LogoDefinitivo" transform="translate(16.000000, 141.000000)">
                <g id="Group" fill="#FAA21B">
                    <path d="M94.6958242,0.0989115624 L5.69262637,0.0989115624 C2.54830769,0.0989115624 0.00110989011,2.6506076 0.00110989011,5.79688438 C0.00110989011,8.94316115 2.54941758,11.4959686 5.69262637,11.4959686 L11.9623956,11.4959686 C11.7781538,12.2239132 11.6660549,12.9851988 11.6660549,13.7742686 C11.6660549,18.8098673 15.7426813,22.8919142 20.7704835,22.8919142 C20.867044,22.8919142 20.9613846,22.8808005 21.0546154,22.8774664 L21.0546154,22.8919142 L37.8095165,22.8919142 C40.9549451,22.8919142 43.5032527,25.4424989 43.5032527,28.589887 C43.5032527,31.7361638 40.9549451,34.2878598 37.8095165,34.2878598 L35.4787473,34.2878598 L27.6273846,34.2878598 C24.4830659,34.2878598 21.9391978,36.8384445 21.9391978,39.9847213 C21.9391978,43.1343321 24.4830659,45.6826941 27.6273846,45.6826941 L35.4787473,45.6826941 L40.944956,45.6826941 L47.3190549,45.6826941 C50.4611538,45.6826941 53.0061319,48.2355015 53.0061319,51.3806669 C53.0061319,54.528055 50.4611538,57.0775283 47.3190549,57.0775283 L43.8462088,57.0775283 C43.8462088,57.0775283 50.3335165,71.4963891 51.9572857,75.2572512 C52.5732747,76.6886905 53.1115714,77.3155008 53.5233407,77.7367085 C54.1393297,78.3612961 54.6787363,77.6755834 54.6787363,77.6755834 C54.6787363,77.6755834 67.8342637,52.523151 69.7976593,49.0190144 C71.7599451,45.5137665 68.4291648,45.6838054 68.4291648,45.6838054 C65.2870659,45.6838054 62.7398681,43.1354435 62.7398681,39.9858326 C62.7398681,36.8395558 65.2870659,34.2889712 68.4291648,34.2889712 L70.761044,34.2889712 C73.9053626,34.2889712 76.4525604,31.7361638 76.4525604,28.5909984 C76.4525604,25.4436102 73.9053626,22.8930255 70.761044,22.8930255 L57.7609011,22.8930255 C54.6199121,22.8930255 52.0727143,20.3402181 52.0727143,17.1950527 C52.0727143,14.0476646 54.621022,11.4981913 57.7609011,11.4981913 L94.6958242,11.4981913 C97.8379231,11.4981913 100.384011,8.94649525 100.384011,5.79910711 C100.384011,2.65171896 97.8368132,0.0989115624 94.6958242,0.0989115624 Z" id="Shape"></path>
                    <ellipse id="Oval" cx="85.0497692" cy="28.9377445" rx="5.70150549" ry="5.70908647"></ellipse>
                </g>
                <g id="Group" transform="translate(110.000000, 35.000000)" fill="#000000">
                    <path d="M0.00664516129,6.8552 C0.00664516129,3.6388 2.62705376,1.0362 5.86435484,1.0362 C9.10054839,1.0362 11.7220645,3.6388 11.7220645,6.8552 L11.7220645,7.3139 C14.4188925,3.8698 17.9629785,0.7326 23.8982151,0.7326 C29.2929785,0.7326 33.3775376,3.1053 35.535,7.238 C39.1566129,3.0283 43.4726452,0.7326 49.0977742,0.7326 C57.8062581,0.7326 63.0470753,5.9378 63.0470753,15.8114 L63.0470753,37.1657 C63.0470753,40.3799 60.4266667,42.9836 57.1904731,42.9836 C53.9542796,42.9836 51.3327634,40.3799 51.3327634,37.1657 L51.3327634,19.6383 C51.3327634,14.1262 48.8663011,11.2959 44.4738495,11.2959 C40.0802903,11.2959 37.3845699,14.1273 37.3845699,19.6383 L37.3845699,37.1657 C37.3845699,40.3799 34.7641613,42.9836 31.5279677,42.9836 C28.2917742,42.9836 25.6691505,40.3799 25.6691505,37.1657 L25.6691505,19.6383 C25.6691505,14.1262 23.2026882,11.2959 18.8113441,11.2959 C14.4177849,11.2959 11.7220645,14.1273 11.7220645,19.6383 L11.7220645,37.1657 C11.7220645,40.3799 9.10054839,42.9836 5.86435484,42.9836 C2.62705376,42.9836 0.00664516129,40.3799 0.00664516129,37.1657 L0.00664516129,6.8552 Z" id="Shape"></path>
                    <path d="M92.7930323,43.4423 C80.3854086,43.4423 71.215086,34.793 71.215086,22.2409 L71.215086,22.088 C71.215086,10.3774 79.6156774,0.7326 91.6367742,0.7326 C105.432129,0.7326 111.520204,11.9845 111.520204,20.4798 C111.520204,23.848 109.131269,26.0667 106.049022,26.0667 L82.8529785,26.0667 C84.008129,31.35 87.7072688,34.1044 92.948086,34.1044 C96.1842796,34.1044 98.8822151,33.11 101.271151,31.35 C102.118409,30.7373 102.889247,30.4304 104.121925,30.4304 C106.742333,30.4304 108.66943,32.4214 108.66943,35.024 C108.66943,36.5541 107.975011,37.7025 107.127753,38.4681 C103.505032,41.5283 98.8035806,43.4423 92.7930323,43.4423 Z M100.345258,18.7957 C99.6519462,13.5916 96.5685914,10.0705 91.6367742,10.0705 C86.7824839,10.0705 83.6227097,13.5135 82.6979247,18.7957 L100.345258,18.7957 Z" id="Shape"></path>
                    <path d="M120.459054,6.8552 C120.459054,3.6388 123.079462,1.0362 126.315656,1.0362 C129.551849,1.0362 132.173366,3.6388 132.173366,6.8552 L132.173366,7.3139 C134.870194,3.8698 138.33786,0.7326 144.271989,0.7326 C153.133312,0.7326 158.29771,6.5505 158.29771,15.9632 L158.29771,37.1646 C158.29771,40.3788 155.677301,42.9825 152.44,42.9825 C149.203806,42.9825 146.58229,40.3788 146.58229,37.1646 L146.58229,19.6383 C146.58229,14.1262 143.962989,11.2959 139.494118,11.2959 C135.025247,11.2959 132.173366,14.1273 132.173366,19.6383 L132.173366,37.1657 C132.173366,40.3799 129.552957,42.9836 126.315656,42.9836 C123.078355,42.9836 120.459054,40.3799 120.459054,37.1657 L120.459054,6.8552 Z" id="Shape"></path>
                    <path d="M206,37.1646 C206,40.3788 203.379591,42.9825 200.14229,42.9825 C196.906097,42.9825 194.285688,40.3788 194.285688,37.1646 L194.285688,36.7059 C191.58886,40.1511 188.121194,43.2894 182.187065,43.2894 C173.324634,43.2894 168.160237,37.4726 168.160237,28.0577 L168.160237,6.8552 C168.160237,3.6388 170.780645,1.0362 174.016839,1.0362 C177.25414,1.0362 179.874548,3.6388 179.874548,6.8552 L179.874548,24.3826 C179.874548,29.8936 182.493849,32.725 186.963828,32.725 C191.433806,32.725 194.284581,29.8936 194.284581,24.3826 L194.284581,6.8552 C194.284581,3.6388 196.904989,1.0362 200.141183,1.0362 C203.378484,1.0362 205.998892,3.6388 205.998892,6.8552 L205.998892,37.1646 L206,37.1646 Z" id="Shape"></path>
                </g>
                <g id="Group" transform="translate(111.000000, 0.000000)">
                    <path d="M17.5895423,21.7741003 C17.5895423,22.839291 16.7200767,23.6541672 15.6580149,23.6541672 C14.5625549,23.6541672 13.6930892,22.839291 13.6930892,21.7741003 L13.6930892,20.7381672 C12.4373181,22.462194 10.6661018,23.8416321 7.89628032,23.8416321 C3.90408581,23.8416321 0.00763272311,20.7381672 0.00763272311,15.2540067 L0.00763272311,15.1911572 C0.00763272311,9.70591304 3.83951602,6.60244816 7.89628032,6.60244816 C10.6983867,6.60244816 12.469603,7.95046154 13.6930892,9.51736455 L13.6930892,2.34060201 C13.6930892,1.27432776 14.5625549,0.459451505 15.6246167,0.459451505 C16.7200767,0.459451505 17.5895423,1.27432776 17.5895423,2.34060201 L17.5895423,21.7741003 Z M3.93414416,15.1911572 L3.93414416,15.2540067 C3.93414416,18.4506622 6.18852059,20.5507023 8.82920252,20.5507023 C11.4375995,20.5507023 13.757659,18.4192375 13.757659,15.2540067 L13.757659,15.1911572 C13.757659,11.9934181 11.4387128,9.89337793 8.82920252,9.89337793 C6.15734897,9.89337793 3.93414416,11.8991438 3.93414416,15.1911572 Z" id="Shape" fill="#000000"></path>
                    <path d="M30.274167,23.8730569 C25.3468238,23.8730569 21.5472254,20.3946622 21.5472254,15.2854314 L21.5472254,15.2225819 C21.5472254,10.4904482 24.9928032,6.60244816 29.8555767,6.60244816 C35.2660801,6.60244816 37.9379336,10.9282274 37.9379336,14.7522943 C37.9379336,15.8174849 37.1007529,16.5695117 36.1032609,16.5695117 L25.4436785,16.5695117 C25.8622689,19.2655385 27.8260812,20.7706756 30.3387368,20.7706756 C31.9808135,20.7706756 33.2688696,20.2061137 34.3632162,19.328388 C34.6537803,19.1094983 34.9120595,18.9827157 35.3618215,18.9827157 C36.2312872,18.9827157 36.9081568,19.6404682 36.9081568,20.518194 C36.9081568,20.9884816 36.6832757,21.3959197 36.3927117,21.6787425 C34.8474897,23.0267559 32.914849,23.8730569 30.274167,23.8730569 Z M34.1383352,14.0620334 C33.8811693,11.6184883 32.3994039,9.70591304 29.8232918,9.70591304 C27.4397757,9.70591304 25.7654142,11.4927893 25.4113936,14.0620334 L34.1383352,14.0620334 Z" id="Shape" fill="#000000"></path>
                    <path d="M52.1366087,18.7334849 L52.1366087,10.7711037 L51.9740709,10.7711037 C50.8151545,10.7711037 49.881119,9.86303679 49.881119,8.73391304 C49.881119,7.60587291 50.8151545,6.69672241 51.9740709,6.69672241 L52.1366087,6.69672241 L52.1366087,4.59559866 C52.1366087,3.28009365 53.2309554,2.2138194 54.5835812,2.2138194 C55.9362071,2.2138194 57.031667,3.28009365 57.031667,4.59559866 L57.031667,6.6956388 L59.1891888,6.6956388 C60.3492185,6.6956388 61.2821407,7.6047893 61.2821407,8.73282943 C61.2821407,9.86195318 60.3481053,10.7700201 59.1891888,10.7700201 L57.031667,10.7700201 L57.031667,17.9489498 C57.031667,19.0455652 57.5148272,19.5787023 58.6091739,19.5787023 C58.7694851,19.5787023 59.0912208,19.5472776 59.1880755,19.5472776 C60.2824222,19.5472776 61.2175709,20.4250033 61.2175709,21.5216187 C61.2175709,22.3679197 60.6375561,23.057097 59.9606865,23.308495 C59.0600492,23.6530836 58.2228684,23.7787826 57.1596934,23.7787826 C54.1649908,23.7787826 52.1366087,22.6204013 52.1366087,18.7334849 Z" id="Shape" fill="#FAA21B"></path>
                    <path d="M63.3728661,15.1911572 L63.3728661,15.1272241 C63.3728661,10.3008161 67.3661739,6.38247492 72.7432792,6.38247492 C78.0903261,6.38247492 82.0491224,10.2379666 82.0491224,15.0643746 L82.0491224,15.1272241 C82.0491224,19.9547157 78.0569279,23.8719732 72.6787094,23.8719732 C67.3327757,23.8730569 63.3728661,20.0175652 63.3728661,15.1911572 Z M77.2197471,15.1911572 L77.2197471,15.1272241 C77.2197471,12.6511706 75.3850744,10.4893645 72.6798227,10.4893645 C69.8777162,10.4893645 68.2033547,12.5894047 68.2033547,15.0643746 L68.2033547,15.1272241 C68.2033547,17.6043612 70.0380275,19.7672508 72.7432792,19.7672508 C75.5453856,19.7672508 77.2197471,17.6672107 77.2197471,15.1911572 Z" id="Shape" fill="#FAA21B"></path>
                    <path d="M102.946357,21.3027291 C102.946357,22.6193177 101.850897,23.6845084 100.498271,23.6845084 C99.1456453,23.6845084 98.0512986,22.6193177 98.0512986,21.3027291 L98.0512986,21.0838395 C96.858984,22.6507425 95.2180206,23.811291 92.6719668,23.811291 C88.6474874,23.811291 84.8144908,20.7392508 84.8144908,15.1283077 L84.8144908,15.0654582 C84.8144908,9.45451505 88.5818043,6.38355853 92.6719668,6.38355853 C95.2803638,6.38355853 96.8912689,7.54302341 98.0512986,8.89103679 L98.0512986,2.80980602 C98.0512986,1.49321739 99.1456453,0.428026756 100.498271,0.428026756 C101.850897,0.428026756 102.946357,1.49321739 102.946357,2.80980602 L102.946357,21.3027291 Z M89.7117757,15.0643746 L89.7117757,15.1272241 C89.7117757,17.9175251 91.6433032,19.7672508 93.9299645,19.7672508 C96.2166259,19.7672508 98.1158684,17.9175251 98.1158684,15.1272241 L98.1158684,15.0643746 C98.1158684,12.2751572 96.2155126,10.4265151 93.9299645,10.4265151 C91.6433032,10.4265151 89.7117757,12.2448161 89.7117757,15.0643746 Z" id="Shape" fill="#FAA21B"></path>
                    <path d="M106.486563,15.1911572 L106.486563,15.1272241 C106.486563,10.3008161 110.478757,6.38247492 115.858089,6.38247492 C121.204023,6.38247492 125.163932,10.2379666 125.163932,15.0643746 L125.163932,15.1272241 C125.163932,19.9547157 121.171738,23.8719732 115.793519,23.8719732 C110.447586,23.8730569 106.486563,20.0175652 106.486563,15.1911572 Z M120.333444,15.1911572 L120.333444,15.1272241 C120.333444,12.6511706 118.497658,10.4893645 115.793519,10.4893645 C112.9903,10.4893645 111.317051,12.5894047 111.317051,15.0643746 L111.317051,15.1272241 C111.317051,17.6043612 113.151724,19.7672508 115.856976,19.7672508 C118.659082,19.7672508 120.333444,17.6672107 120.333444,15.1911572 Z" id="Shape" fill="#FAA21B"></path>
                </g>
                <circle id="Oval" fill="#000000" cx="296" cy="24" r="6"></circle>
            </g>
        </g>
    </g>
</svg>