<?xml version="1.0" encoding="utf-8"?>
<!-- Generator: Adobe Illustrator 16.0.0, SVG Export Plug-In . SVG Version: 6.00 Build 0)  -->
<!DOCTYPE svg PUBLIC "-//W3C//DTD SVG 1.1//EN" "http://www.w3.org/Graphics/SVG/1.1/DTD/svg11.dtd">
<svg version="1.1" id="Layer_1" xmlns="http://www.w3.org/2000/svg" xmlns:xlink="http://www.w3.org/1999/xlink" x="0px" y="0px"
	 width="49.185px" height="96.102px" viewBox="0 0 49.185 96.102" enable-background="new 0 0 49.185 96.102" xml:space="preserve">
<g>
	<g>
		<path fill="#E55125" d="M42.888,14.379c-1.42-2.75-2.989-5.478-5.231-7.869c-2.359-2.51-5.607-4.465-8.611-6.45
			c-0.27-0.178-0.642,0.074-0.509,0.275c-0.05,0.064-0.061,0.146,0.018,0.23c2.624,2.795,2.259,6.747,1.855,10.039
			c-0.547,4.469-2.259,8.784-4.896,12.738c-2.579,3.863-5.926,7.398-8.942,11.047c-1.418,1.715-2.829,3.462-3.902,5.336
			c-0.578,1.014-1.051,2.062-1.571,3.094c-0.631,1-1.325,1.969-2.029,2.938c-0.637,0.877-1.213,3.086-2.961,2.873
			c-1.352-0.167-1.666-2.322-1.716-3.127c-0.044-0.667,0.076-1.343,0.091-2.009c0.013-0.476,0.24-1.857,0.032-1.873
			c-0.134-0.068-0.324-0.067-0.428,0.073c-3.423,4.624-4.053,10.213-4.085,15.479c-0.04,6.117,1.485,12.013,4.498,17.642
			c2.949,5.507,6.96,10.222,12.495,14.269c2.369,1.73,4.923,3.333,7.562,4.791c1.588,0.879,3.455,1.811,5.417,2.192
			c0.497-0.004,0.979,0.053,1.487,0.029c0.35-0.016,0.695-0.057,1.04-0.105c-0.217-0.181-0.403-0.375-0.56-0.583
			c-1.812-1.857-1.824-4.882-2.554-7.041c-0.628-1.857-0.328-3.86-0.12-5.746c0.231-2.086,0.322-4.173,0.732-6.246
			c0.737-3.713,3.172-6.924,4.605-10.459c1.461-3.605,3.887-6.854,5.76-10.323c1.772-3.282,3.005-6.829,4.334-10.242
			c1.318-3.388,2.204-6.829,2.511-10.371C47.813,27.985,46.225,20.848,42.888,14.379z"/>
		<path fill="#F3A61E" d="M37.568,21.503c-0.115-0.209-0.49-0.123-0.562,0.058c-0.694,1.75-1.083,3.545-2.005,5.237
			c-0.985,1.806-2.365,3.47-3.728,5.104c-2.679,3.21-5.733,6.186-8.934,9.069c-2.88,2.596-6.032,5.039-8.664,7.804
			c-2.312,2.427-4.01,5.2-5.026,8.139c-1.089,3.149-1.032,6.363-0.762,9.594c0.302,3.619,1.248,7.06,3.01,10.407
			c1.643,3.12,3.398,6.239,5.917,8.976c2.251,2.447,5.015,4.581,7.765,6.667c1.776,1.348,4.109,3.14,6.681,3.54
			c0.068-0.001,0.131,0.002,0.2-0.001c0.35-0.016,0.695-0.057,1.04-0.105c-0.235-0.198-0.439-0.411-0.602-0.642
			c-1.014-0.789-1.584-1.842-2.141-2.893c-0.748-1.407-1.546-2.798-2.306-4.201c-1.86-3.428-2.367-6.978-2.683-10.675
			c-0.296-3.458-0.428-6.813,0.6-10.213c1.038-3.43,3.47-6.506,5.192-9.728c1.433-2.68,3.352-5.171,4.663-7.896
			c1.569-3.264,2.226-6.939,3.1-10.358C39.775,33.717,40.561,26.966,37.568,21.503z"/>
		<path fill="#F4CF70" d="M31.46,96.096c0.35-0.016,0.695-0.057,1.04-0.105c-0.09-0.077-0.176-0.152-0.256-0.232
			c-1.902-0.813-2.899-2.601-3.866-4.062c-1.191-1.797-2.581-3.505-3.757-5.312c-2.808-4.312-4.588-9.471-4.607-14.353
			c-0.02-4.664,3.147-8.479,5.607-12.524c1.166-1.917,2.132-3.887,2.737-5.966c0.492-1.694,1.332-3.762,0.891-5.508
			c-0.064-0.261-0.495-0.207-0.591,0c-1.206,2.569-3.089,4.749-5.387,6.771c-2.085,1.835-4.395,3.436-6.153,5.497
			c-3.488,4.092-4.412,8.785-3.561,13.623c0.85,4.831,3.051,10.17,6.74,14.098c1.88,2.003,4.144,3.781,6.322,5.575
			c1.15,0.949,2.542,2.046,4.165,2.493C31.006,96.1,31.229,96.106,31.46,96.096z"/>
	</g>
	<path fill="#E55125" d="M45.298,52.084c-2.705,7.083-8.184,13.174-11.333,20.107c-1.571,3.463-2.117,7.116-2.126,10.78
		c-0.007,2.9-0.086,5.997,1.893,8.545c0.14,0.325,0.273,0.651,0.382,0.985c0.102,0.316,0.764,0.259,0.723-0.079
		c-0.406-3.389-0.328-7.039,0.105-10.425c0.469-3.669,2.466-7.237,4.343-10.56c1.746-3.093,3.656-6.114,4.813-9.393
		c1.131-3.205,1.798-6.554,1.923-9.882C46.033,51.821,45.417,51.771,45.298,52.084z"/>
	<path fill="#E55125" d="M27.861,13.44c0.235-1.429,0.479-2.861,0.063-4.284c-0.092-0.312-1.877,5.178-3.357,7.636
		c-1.548,2.573-4.017,4.72-6.334,6.855c-2.199,2.025-4.151,4.229-5.494,6.699c-0.598,1.099-0.917,2.327-1.334,3.479
		c-0.357,0.983-0.593,1.988-0.303,2.999c0.09,0.315,3.494-4.786,5.327-6.986c1.733-2.084,4.062-3.818,5.921-5.83
		c1.785-1.932,3.248-4.053,4.284-6.308c0.382-0.832,0.672-1.692,0.897-2.562c0.059-0.046,0.104-0.108,0.113-0.19
		c0.023-0.227,0.054-0.454,0.086-0.682c0.019-0.091,0.042-0.181,0.06-0.272C27.825,13.81,27.847,13.625,27.861,13.44z"/>
</g>
</svg>
