<?xml version="1.0" encoding="utf-8"?>
<!-- Generator: Adobe Illustrator 16.0.0, SVG Export Plug-In . SVG Version: 6.00 Build 0)  -->
<!DOCTYPE svg PUBLIC "-//W3C//DTD SVG 1.1//EN" "http://www.w3.org/Graphics/SVG/1.1/DTD/svg11.dtd">
<svg version="1.1" id="Layer_1" xmlns="http://www.w3.org/2000/svg" xmlns:xlink="http://www.w3.org/1999/xlink" x="0px" y="0px"
	 width="768px" height="228.5px" viewBox="0 383.5 768 228.5" enable-background="new 0 383.5 768 228.5" xml:space="preserve">
<circle fill="#FAA21D" cx="296.187" cy="424.188" r="36.187"/>
<g>
	<path d="M406,579c-14-33-94-193-199-154C116.304,458.688,47.994,579.664,31.065,612h353.976
		C400.501,598.979,409.487,587.221,406,579z"/>
</g>
<path fill="#D6D6D6" d="M194,570c0,0,63-49,175-26s-12,35-12,35l-163,6V570z"/>
<circle fill="#FAA21D" cx="507.847" cy="455" r="26"/>
<polygon fill="#FFFFFF" stroke="#FAA21D" stroke-miterlimit="10" points="537.847,484.446 537.847,445.446 507.847,445.446 
	477.847,445.446 477.847,484.446 445.847,484.446 445.847,515.458 507.847,515.458 569.847,515.458 569.847,484.446 "/>
<path d="M515.094,468.285L515.094,468.285c0-3.395-2.751-6.146-6.145-6.146s-6.145,2.751-6.145,6.145v0.001h-0.021v24.333h12.334
	v-24.333H515.094L515.094,468.285z"/>
<path fill="#D6D6D6" stroke="#FAA21D" stroke-miterlimit="10" d="M206.667,566.333c0,0,64-36,147.667-22.333s19,41,19,41l-154.427,2
	L206.667,566.333z"/>
<g>
	<path fill="#FAA21D" d="M345.341,544.562c0,0-0.001,0-0.002,0C322.007,557.691,333,564,193,561
		c-112.18-2.404-157.203,34.354-170.67,49.058c-1.688,0.683-3.282,1.335-4.746,1.942h3.033h18.107H259h489.691
		C566.636,439.055,418.777,500.068,345.341,544.562z"/>
</g>
<g>
	<polygon fill="#FFFFFF" stroke="#FAA31F" stroke-miterlimit="10" points="463.788,453.626 549.788,441.626 549.788,458.293 
		463.788,470.147 	"/>
	<g>
		<path fill="#010101" d="M477.5,455.707l0.811,6.259c0.059,0.46,0.137,0.98,0.215,1.332l-0.847,0.107l-0.157-0.894l-0.021,0.003
			c-0.215,0.615-0.789,1.137-1.635,1.245c-1.252,0.161-2.352-0.772-2.555-2.347c-0.232-1.723,0.7-2.918,1.963-3.081
			c0.791-0.104,1.375,0.202,1.664,0.589l0.021-0.002l-0.398-3.092L477.5,455.707z M477.145,460.354
			c-0.018-0.117-0.048-0.275-0.095-0.391c-0.218-0.581-0.794-1.007-1.5-0.916c-0.976,0.126-1.44,1.057-1.293,2.202
			c0.135,1.048,0.76,1.849,1.776,1.717c0.63-0.081,1.154-0.573,1.233-1.302c0.017-0.132,0.011-0.264-0.01-0.412L477.145,460.354z"/>
		<path fill="#010101" d="M480.258,460.614c0.186,1.271,1.064,1.69,2.009,1.568c0.673-0.087,1.063-0.257,1.397-0.451l0.246,0.652
			c-0.312,0.192-0.854,0.438-1.68,0.543c-1.596,0.206-2.683-0.72-2.885-2.281c-0.201-1.562,0.561-2.91,2.067-3.104
			c1.69-0.22,2.331,1.211,2.454,2.163c0.024,0.191,0.022,0.346,0.024,0.441L480.258,460.614z M482.932,459.585
			c-0.066-0.602-0.443-1.498-1.504-1.359c-0.951,0.121-1.256,1.053-1.246,1.715L482.932,459.585z"/>
		<path fill="#010101" d="M487.949,455.305l0.191,1.486l1.35-0.174l0.092,0.717l-1.348,0.174l0.359,2.793
			c0.083,0.644,0.312,0.982,0.836,0.914c0.247-0.03,0.424-0.087,0.538-0.134l0.134,0.699c-0.173,0.1-0.453,0.188-0.818,0.234
			c-0.438,0.057-0.81-0.035-1.065-0.264c-0.304-0.243-0.459-0.691-0.538-1.301l-0.363-2.825l-0.804,0.104l-0.093-0.718l0.803-0.104
			l-0.16-1.24L487.949,455.305z"/>
		<path fill="#010101" d="M495.502,458.43c0.247,1.915-0.973,2.923-2.223,3.083c-1.402,0.182-2.615-0.707-2.828-2.344
			c-0.223-1.732,0.779-2.896,2.214-3.081C494.152,455.896,495.298,456.847,495.502,458.43z M491.4,459.015
			c0.146,1.135,0.91,1.904,1.83,1.786c0.898-0.116,1.465-1.048,1.312-2.214c-0.112-0.878-0.694-1.936-1.809-1.79
			C491.622,456.94,491.273,458.028,491.4,459.015z"/>
		<path fill="#010101" d="M500.523,452.734l0.809,6.26c0.061,0.46,0.139,0.981,0.217,1.332l-0.846,0.108l-0.16-0.895l-0.021,0.003
			c-0.214,0.614-0.787,1.136-1.634,1.245c-1.252,0.16-2.353-0.773-2.555-2.348c-0.231-1.723,0.698-2.919,1.963-3.081
			c0.79-0.104,1.375,0.201,1.663,0.588l0.021-0.002l-0.398-3.092L500.523,452.734z M500.166,457.382
			c-0.016-0.118-0.047-0.277-0.094-0.393c-0.217-0.579-0.795-1.007-1.5-0.914c-0.976,0.126-1.44,1.057-1.293,2.199
			c0.135,1.051,0.761,1.851,1.776,1.72c0.632-0.082,1.154-0.573,1.234-1.304c0.017-0.131,0.01-0.263-0.011-0.412L500.166,457.382z"
			/>
		<path fill="#010101" d="M507.414,456.892c0.246,1.916-0.973,2.922-2.225,3.084c-1.4,0.182-2.613-0.707-2.826-2.345
			c-0.224-1.732,0.779-2.896,2.213-3.081C506.064,454.357,507.209,455.309,507.414,456.892z M503.312,457.478
			c0.146,1.133,0.909,1.903,1.829,1.785c0.898-0.115,1.464-1.048,1.312-2.214c-0.111-0.878-0.693-1.934-1.809-1.79
			C503.533,455.402,503.186,456.489,503.312,457.478z"/>
		<path fill="#010101" d="M510.916,458.551c-0.053-0.396,0.182-0.709,0.556-0.758c0.375-0.048,0.668,0.194,0.72,0.593
			c0.049,0.385-0.16,0.706-0.556,0.758C511.261,459.19,510.966,458.935,510.916,458.551z"/>
		<path fill="#010101" d="M515.209,454.721c-0.068-0.533-0.137-0.972-0.225-1.396l0.824-0.106l0.149,0.829l0.032-0.004
			c0.226-0.528,0.646-1.052,1.502-1.162c0.707-0.091,1.298,0.269,1.603,0.849l0.021-0.004c0.125-0.309,0.298-0.56,0.49-0.748
			c0.281-0.273,0.606-0.445,1.1-0.511c0.686-0.089,1.761,0.229,1.99,2.027l0.396,3.049l-0.921,0.118l-0.378-2.934
			c-0.129-0.992-0.569-1.547-1.329-1.447c-0.534,0.068-0.9,0.52-1.003,1c-0.024,0.134-0.035,0.309-0.015,0.479l0.414,3.199
			l-0.92,0.118l-0.401-3.104c-0.105-0.822-0.548-1.376-1.265-1.283c-0.59,0.076-0.957,0.604-1.045,1.094
			c-0.035,0.146-0.037,0.31-0.017,0.47l0.401,3.125l-0.92,0.118L515.209,454.721z"/>
		<path fill="#010101" d="M524.836,454.859c0.188,1.271,1.066,1.688,2.009,1.567c0.675-0.087,1.063-0.257,1.397-0.452l0.248,0.654
			c-0.312,0.19-0.855,0.437-1.682,0.543c-1.595,0.206-2.683-0.72-2.884-2.281c-0.201-1.561,0.56-2.91,2.067-3.104
			c1.689-0.22,2.332,1.211,2.455,2.161c0.023,0.193,0.021,0.347,0.023,0.443L524.836,454.859z M527.51,453.829
			c-0.066-0.603-0.443-1.498-1.504-1.361c-0.951,0.123-1.257,1.056-1.246,1.716L527.51,453.829z"/>
		<path fill="#010101" d="M529.497,452.876c-0.067-0.534-0.136-0.974-0.224-1.396l0.834-0.107l0.164,0.85l0.021-0.003
			c0.193-0.524,0.73-1.084,1.588-1.194c0.717-0.092,1.885,0.191,2.111,1.969l0.399,3.093l-0.94,0.121l-0.385-2.983
			c-0.108-0.836-0.51-1.49-1.396-1.377c-0.619,0.08-1.045,0.581-1.139,1.127c-0.026,0.123-0.026,0.286-0.008,0.446l0.402,3.112
			l-0.941,0.122L529.497,452.876z"/>
		<path fill="#010101" d="M540.076,453.914c0.068,0.535,0.142,1.005,0.228,1.406l-0.835,0.106l-0.162-0.839l-0.021,0.003
			c-0.19,0.449-0.668,1.065-1.588,1.185c-0.812,0.105-1.844-0.219-2.08-2.035l-0.391-3.028l0.94-0.122l0.37,2.868
			c0.127,0.981,0.514,1.606,1.367,1.498c0.633-0.082,1.015-0.577,1.131-1.019c0.035-0.146,0.046-0.319,0.023-0.492l-0.408-3.176
			l0.939-0.123L540.076,453.914z M538.66,447.995l-1.106,1.696l-0.675,0.088l0.743-1.649L538.66,447.995z"/>
	</g>
</g>
</svg>
