<?xml version="1.0" encoding="utf-8"?>
<!-- Generator: Adobe Illustrator 16.0.0, SVG Export Plug-In . SVG Version: 6.00 Build 0)  -->
<!DOCTYPE svg PUBLIC "-//W3C//DTD SVG 1.1//EN" "http://www.w3.org/Graphics/SVG/1.1/DTD/svg11.dtd">
<svg version="1.1" id="Layer_1" xmlns="http://www.w3.org/2000/svg" xmlns:xlink="http://www.w3.org/1999/xlink" x="0px" y="0px"
	 width="768px" height="238px" viewBox="0 0 768 238" enable-background="new 0 0 768 238" xml:space="preserve">
<circle fill="#FAA21D" cx="297.187" cy="48.885" r="36.187"/>
<g>
	<path d="M407,203.697c-14-33-94-193-199-154c-90.696,33.688-159.006,154.664-175.935,187h353.976
		C401.501,223.675,410.487,211.918,407,203.697z"/>
</g>
<path fill="#D6D6D6" d="M195,194.697c0,0,63-49,175-26s-12,35-12,35l-163,6V194.697z"/>
<polygon fill="#FFFFFF" stroke="#FAA21D" stroke-miterlimit="10" points="538.847,109.144 538.847,70.144 508.847,70.144 
	478.847,70.144 478.847,109.144 478.847,109.144 478.875,140.155 508.847,140.155 570.847,140.155 570.847,109.144 "/>
<g>
	<polygon fill="#FFFFFF" stroke="#FAA21D" stroke-width="0.8921" stroke-miterlimit="10" points="468.85,65.247 545.567,54.542 
		545.567,69.41 468.85,79.984 	"/>
	<g>
		<path d="M481.082,67.104l0.721,5.583c0.054,0.411,0.123,0.876,0.192,1.188l-0.755,0.098l-0.142-0.797l-0.019,0.002
			c-0.191,0.549-0.704,1.014-1.458,1.111c-1.116,0.144-2.098-0.69-2.278-2.094c-0.208-1.535,0.624-2.604,1.751-2.748
			c0.705-0.092,1.227,0.18,1.484,0.525l0.02-0.002l-0.356-2.758L481.082,67.104z M480.764,71.249
			c-0.014-0.104-0.042-0.247-0.084-0.349c-0.193-0.518-0.708-0.898-1.338-0.816c-0.869,0.111-1.286,0.942-1.153,1.964
			c0.12,0.935,0.678,1.648,1.586,1.532c0.562-0.072,1.029-0.512,1.101-1.162c0.014-0.117,0.009-0.232-0.009-0.367L480.764,71.249z"
			/>
		<path d="M483.542,71.482c0.165,1.134,0.951,1.508,1.792,1.398c0.6-0.078,0.949-0.229,1.247-0.403l0.221,0.583
			c-0.278,0.172-0.764,0.389-1.499,0.484c-1.423,0.184-2.393-0.643-2.573-2.035c-0.179-1.395,0.5-2.598,1.846-2.771
			c1.508-0.193,2.08,1.08,2.189,1.93c0.022,0.172,0.021,0.309,0.022,0.395L483.542,71.482z M485.927,70.562
			c-0.06-0.535-0.396-1.336-1.342-1.213c-0.849,0.108-1.12,0.939-1.111,1.53L485.927,70.562z"/>
		<path d="M490.403,66.744l0.172,1.326l1.202-0.155l0.082,0.64l-1.202,0.155l0.321,2.491c0.074,0.573,0.278,0.877,0.746,0.815
			c0.221-0.028,0.378-0.077,0.48-0.119l0.119,0.624c-0.154,0.088-0.405,0.168-0.73,0.211c-0.391,0.051-0.722-0.033-0.952-0.236
			c-0.27-0.217-0.409-0.616-0.479-1.16l-0.325-2.52l-0.716,0.092l-0.082-0.639l0.715-0.093l-0.143-1.107L490.403,66.744z"/>
		<path d="M497.141,69.532c0.221,1.708-0.867,2.606-1.982,2.75c-1.251,0.162-2.333-0.63-2.522-2.091
			c-0.199-1.546,0.695-2.583,1.975-2.748C495.937,67.271,496.959,68.12,497.141,69.532z M493.481,70.055
			c0.131,1.011,0.812,1.698,1.633,1.593c0.802-0.104,1.306-0.935,1.171-1.976c-0.101-0.783-0.62-1.725-1.613-1.596
			C493.68,68.203,493.368,69.175,493.481,70.055z"/>
		<path d="M501.62,64.451l0.721,5.584c0.053,0.41,0.123,0.876,0.192,1.188l-0.754,0.098l-0.143-0.797l-0.02,0.003
			c-0.19,0.549-0.702,1.013-1.457,1.11c-1.117,0.145-2.097-0.689-2.278-2.094c-0.208-1.535,0.624-2.603,1.75-2.748
			c0.706-0.092,1.227,0.18,1.484,0.525l0.02-0.002l-0.355-2.758L501.62,64.451z M501.302,68.598
			c-0.015-0.105-0.042-0.248-0.084-0.349c-0.193-0.519-0.708-0.898-1.338-0.817c-0.87,0.112-1.286,0.943-1.153,1.964
			c0.12,0.936,0.679,1.649,1.585,1.532c0.562-0.073,1.031-0.512,1.103-1.161c0.014-0.118,0.008-0.234-0.009-0.368L501.302,68.598z"
			/>
		<path d="M507.768,68.16c0.22,1.709-0.867,2.606-1.984,2.75c-1.25,0.162-2.332-0.631-2.521-2.091
			c-0.2-1.546,0.695-2.583,1.974-2.749C506.563,65.899,507.584,66.748,507.768,68.16z M504.108,68.682
			c0.131,1.012,0.811,1.699,1.632,1.594c0.802-0.104,1.306-0.936,1.172-1.975c-0.102-0.783-0.621-1.726-1.614-1.598
			C504.306,66.832,503.995,67.803,504.108,68.682z"/>
		<path d="M510.892,69.641c-0.047-0.354,0.161-0.633,0.494-0.676c0.335-0.043,0.596,0.174,0.642,0.528
			c0.044,0.343-0.143,0.63-0.495,0.675C511.198,70.211,510.936,69.982,510.892,69.641z"/>
		<path d="M514.721,66.224c-0.062-0.477-0.122-0.867-0.199-1.245l0.735-0.095l0.134,0.739l0.029-0.004
			c0.2-0.472,0.577-0.938,1.34-1.036c0.63-0.081,1.157,0.239,1.429,0.757l0.018-0.004c0.111-0.274,0.265-0.498,0.438-0.666
			c0.251-0.246,0.541-0.399,0.98-0.456c0.61-0.079,1.569,0.204,1.776,1.809l0.351,2.72l-0.82,0.105l-0.338-2.615
			c-0.114-0.887-0.508-1.381-1.186-1.293c-0.477,0.062-0.804,0.463-0.895,0.893c-0.023,0.119-0.032,0.275-0.012,0.428l0.368,2.854
			l-0.82,0.105l-0.358-2.768c-0.095-0.734-0.488-1.227-1.128-1.145c-0.525,0.068-0.853,0.537-0.932,0.975
			c-0.031,0.131-0.033,0.275-0.015,0.419l0.36,2.788l-0.821,0.105L514.721,66.224z"/>
		<path d="M523.309,66.348c0.166,1.133,0.951,1.507,1.791,1.398c0.602-0.077,0.95-0.229,1.249-0.403l0.22,0.583
			c-0.277,0.172-0.764,0.389-1.499,0.484c-1.423,0.184-2.393-0.643-2.572-2.035c-0.18-1.395,0.499-2.597,1.845-2.771
			c1.508-0.193,2.08,1.08,2.19,1.93c0.021,0.172,0.02,0.308,0.021,0.395L523.309,66.348z M525.694,65.428
			c-0.061-0.535-0.396-1.336-1.342-1.214c-0.849,0.109-1.12,0.94-1.111,1.53L525.694,65.428z"/>
		<path d="M527.467,64.578c-0.062-0.477-0.121-0.867-0.199-1.245l0.744-0.097l0.146,0.758l0.02-0.002
			c0.173-0.469,0.651-0.968,1.415-1.066c0.64-0.082,1.682,0.171,1.886,1.755l0.356,2.759l-0.84,0.108l-0.344-2.663
			c-0.097-0.744-0.453-1.328-1.246-1.227c-0.553,0.071-0.932,0.518-1.015,1.004c-0.024,0.111-0.024,0.256-0.007,0.399l0.359,2.776
			l-0.841,0.109L527.467,64.578z"/>
		<path d="M536.905,65.504c0.061,0.478,0.124,0.896,0.201,1.256l-0.745,0.096l-0.145-0.748l-0.02,0.002
			c-0.171,0.4-0.596,0.951-1.416,1.057c-0.725,0.094-1.646-0.195-1.855-1.817l-0.349-2.701l0.84-0.108l0.33,2.559
			c0.113,0.877,0.457,1.434,1.221,1.336c0.563-0.073,0.904-0.516,1.009-0.907c0.031-0.13,0.04-0.286,0.021-0.438l-0.365-2.835
			l0.839-0.108L536.905,65.504z M535.642,60.224l-0.988,1.515l-0.602,0.078l0.663-1.473L535.642,60.224z"/>
	</g>
</g>
<path fill="#D6D6D6" stroke="#FAA21D" stroke-miterlimit="10" d="M207.667,191.03c0,0,64-36,147.667-22.333s19,41,19,41l-154.427,2
	L207.667,191.03z"/>
<rect x="484.97" y="90.395" width="17.635" height="17.635"/>
<rect x="513.04" y="90.395" width="16.849" height="37.969"/>
<rect x="449.088" y="63.49" width="1.5" height="65.096"/>
<rect x="560.381" y="63.269" width="1.5" height="45.875"/>
<path fill="#FAA21D" d="M564.69,63.461c0,0,0.754-1.643,2.567-2.465v-1.231h1.267l1.369-2.054c0,0-6.161-1.506-8.763,4.518
	c-2.602-6.023-8.762-4.518-8.762-4.518l1.368,2.054h1.268v1.231c1.813,0.822,2.566,2.465,2.566,2.465
	c-6.709-1.643-8.693,2.67-8.693,2.67v0.616h2.259l1.232-1.232v0.821h4.107l1.095-0.821v0.821h3.56h3.56v-0.821l1.096,0.821h4.107
	v-0.821l1.231,1.232h2.26v-0.616C573.385,66.131,571.399,61.818,564.69,63.461z"/>
<path fill="#FAA21D" d="M454.005,59.407l3.833-3.5v-1.333h1.5l1.5-2c0,0-9.333-2.5-11,5.5c-1.666-8-11-5.5-11-5.5l1.5,2h1.5v1.333
	l3.834,3.5c-7.5-3-11.834,4.167-11.834,4.167l2.667-0.167l2.333-0.833l1.334,0.666l4.833-0.666l-3.833,4v2.166h-1l0.833,5.167l1.5-4
	h1.333l6-6.333l6,6.333h1.334l1.5,4l0.833-5.167h-1v-2.166l-3.833-4l4.833,0.666l1.333-0.666l2.334,0.833l2.666,0.167
	C465.838,63.574,461.505,56.407,454.005,59.407z"/>
<g>
	<path fill="#FAA21D" d="M346.341,169.259c0,0-0.001,0.001-0.002,0.001C323.007,182.389,334,188.697,194,185.697
		C81.82,183.293,36.797,220.05,23.33,234.755c-1.688,0.682-3.282,1.335-4.746,1.942h3.033h18.107H260h489.691
		C567.636,63.752,419.777,124.766,346.341,169.259z"/>
</g>
</svg>
