<?xml version="1.0" encoding="utf-8"?>
<!-- Generator: Adobe Illustrator 16.0.0, SVG Export Plug-In . SVG Version: 6.00 Build 0)  -->
<!DOCTYPE svg PUBLIC "-//W3C//DTD SVG 1.1//EN" "http://www.w3.org/Graphics/SVG/1.1/DTD/svg11.dtd">
<svg version="1.1" id="Layer_1" xmlns="http://www.w3.org/2000/svg" xmlns:xlink="http://www.w3.org/1999/xlink" x="0px" y="0px"
	 width="768px" height="612px" viewBox="0 0 768 612" enable-background="new 0 0 768 612" xml:space="preserve">
<circle fill="#FAA21D" cx="296.187" cy="424.188" r="36.187"/>
<g>
	<path d="M406,579c-14-33-94-193-199-154C116.304,458.688,47.994,579.664,31.065,612h353.976
		C400.501,598.979,409.487,587.221,406,579z"/>
</g>
<path fill="#D6D6D6" d="M194,570c0,0,63-49,175-26s-12,35-12,35l-163,6V570z"/>
<circle fill="#FAA21D" cx="507.847" cy="455" r="26"/>
<polygon fill="#FFFFFF" stroke="#FAA21D" stroke-miterlimit="10" points="537.847,484.446 537.847,445.446 507.847,445.446 
	477.847,445.446 477.847,484.446 445.847,484.446 445.847,515.458 507.847,515.458 569.847,515.458 569.847,484.446 "/>
<path d="M515.094,468.285L515.094,468.285c0-3.395-2.751-6.146-6.145-6.146s-6.145,2.751-6.145,6.145v0.001h-0.021v24.333h12.334
	v-24.333H515.094L515.094,468.285z"/>
<path fill="#D6D6D6" stroke="#FAA21D" stroke-miterlimit="10" d="M206.667,566.333c0,0,64-36,147.667-22.333s19,41,19,41l-154.427,2
	L206.667,566.333z"/>
<g>
	<path fill="#FAA21D" d="M345.341,544.562c0,0-0.001,0-0.002,0C322.007,557.691,333,564,193,561
		c-112.18-2.404-157.203,34.354-170.67,49.058c-1.688,0.683-3.282,1.335-4.746,1.942h3.033h18.107H259h489.691
		C566.636,439.055,418.777,500.068,345.341,544.562z"/>
</g>
</svg>
