<?xml version="1.0" encoding="utf-8"?>
<!-- Generator: Adobe Illustrator 16.0.0, SVG Export Plug-In . SVG Version: 6.00 Build 0)  -->
<!DOCTYPE svg PUBLIC "-//W3C//DTD SVG 1.1//EN" "http://www.w3.org/Graphics/SVG/1.1/DTD/svg11.dtd">
<svg version="1.1" id="Layer_1" xmlns="http://www.w3.org/2000/svg" xmlns:xlink="http://www.w3.org/1999/xlink" x="0px" y="0px"
	 width="89px" height="31.5px" viewBox="0 0 89 31.5" enable-background="new 0 0 89 31.5" xml:space="preserve">
<polygon fill="#FFFFFF" stroke="#FAA31F" stroke-miterlimit="10" points="1.698,13.457 87.698,1.457 87.698,18.124 1.698,29.978 "/>
<g>
	<path fill="#010101" d="M15.41,15.538l0.81,6.259c0.06,0.46,0.138,0.981,0.215,1.332l-0.846,0.108l-0.158-0.894l-0.021,0.003
		c-0.214,0.615-0.789,1.136-1.634,1.245c-1.252,0.161-2.352-0.773-2.555-2.347c-0.232-1.723,0.7-2.918,1.963-3.081
		c0.791-0.104,1.375,0.202,1.664,0.589l0.021-0.002l-0.398-3.092L15.41,15.538z M15.054,20.186
		c-0.017-0.118-0.047-0.276-0.094-0.391c-0.218-0.581-0.794-1.007-1.5-0.916c-0.976,0.126-1.441,1.057-1.293,2.202
		c0.135,1.048,0.76,1.848,1.776,1.717c0.63-0.081,1.154-0.573,1.234-1.302c0.016-0.132,0.01-0.263-0.01-0.412L15.054,20.186z"/>
	<path fill="#010101" d="M18.168,20.446c0.186,1.271,1.065,1.69,2.009,1.568c0.673-0.087,1.063-0.257,1.397-0.452l0.247,0.653
		c-0.312,0.192-0.855,0.437-1.681,0.543c-1.595,0.206-2.682-0.72-2.884-2.281c-0.201-1.562,0.56-2.911,2.067-3.105
		c1.69-0.219,2.332,1.211,2.455,2.163c0.024,0.191,0.022,0.346,0.024,0.441L18.168,20.446z M20.842,19.416
		c-0.067-0.601-0.444-1.498-1.504-1.36c-0.952,0.122-1.256,1.054-1.246,1.716L20.842,19.416z"/>
	<path fill="#010101" d="M25.859,15.136l0.192,1.486l1.349-0.174l0.092,0.717l-1.348,0.174l0.36,2.793
		c0.083,0.643,0.312,0.982,0.836,0.914c0.247-0.031,0.424-0.087,0.538-0.134l0.134,0.699c-0.173,0.1-0.454,0.188-0.818,0.235
		c-0.438,0.057-0.81-0.036-1.066-0.264c-0.304-0.243-0.459-0.691-0.538-1.301l-0.364-2.825l-0.803,0.104l-0.093-0.717l0.803-0.104
		l-0.16-1.24L25.859,15.136z"/>
	<path fill="#010101" d="M33.412,18.261c0.247,1.915-0.972,2.922-2.223,3.083c-1.402,0.182-2.615-0.707-2.827-2.344
		c-0.224-1.733,0.779-2.896,2.213-3.081C32.062,15.727,33.208,16.678,33.412,18.261z M29.311,18.846
		c0.146,1.134,0.91,1.904,1.83,1.786c0.898-0.116,1.464-1.048,1.312-2.214c-0.112-0.878-0.694-1.935-1.809-1.79
		C29.532,16.771,29.184,17.86,29.311,18.846z"/>
	<path fill="#010101" d="M38.434,12.565l0.808,6.26c0.061,0.46,0.139,0.981,0.217,1.332l-0.846,0.108l-0.16-0.894l-0.021,0.003
		c-0.214,0.614-0.788,1.136-1.634,1.245c-1.252,0.16-2.352-0.773-2.555-2.348c-0.232-1.722,0.699-2.918,1.963-3.081
		c0.79-0.103,1.375,0.202,1.663,0.589l0.021-0.002l-0.398-3.092L38.434,12.565z M38.076,17.213
		c-0.016-0.118-0.047-0.277-0.094-0.392c-0.217-0.58-0.794-1.007-1.5-0.915c-0.975,0.126-1.44,1.057-1.293,2.2
		c0.135,1.05,0.761,1.85,1.777,1.719c0.631-0.082,1.154-0.573,1.234-1.303c0.017-0.132,0.01-0.263-0.01-0.412L38.076,17.213z"/>
	<path fill="#010101" d="M45.324,16.723c0.247,1.916-0.972,2.922-2.224,3.083c-1.401,0.182-2.614-0.707-2.826-2.344
		c-0.224-1.733,0.779-2.896,2.213-3.081C43.975,14.188,45.119,15.14,45.324,16.723z M41.223,17.308
		c0.146,1.134,0.909,1.904,1.829,1.786c0.898-0.116,1.464-1.048,1.312-2.214c-0.112-0.878-0.694-1.934-1.809-1.79
		C41.444,15.233,41.096,16.321,41.223,17.308z"/>
	<path fill="#010101" d="M48.826,18.382c-0.052-0.396,0.182-0.709,0.556-0.758c0.375-0.048,0.668,0.195,0.719,0.593
		c0.05,0.385-0.159,0.706-0.555,0.757C49.171,19.022,48.876,18.766,48.826,18.382z"/>
	<path fill="#010101" d="M53.119,14.552c-0.068-0.534-0.137-0.972-0.224-1.396l0.824-0.106l0.149,0.829l0.032-0.004
		c0.226-0.529,0.647-1.052,1.503-1.162c0.706-0.091,1.297,0.268,1.602,0.848l0.021-0.003c0.124-0.309,0.297-0.56,0.49-0.748
		c0.281-0.274,0.606-0.446,1.099-0.511c0.686-0.089,1.761,0.229,1.991,2.027l0.395,3.049l-0.921,0.118l-0.378-2.933
		c-0.129-0.993-0.569-1.547-1.329-1.448c-0.534,0.068-0.9,0.52-1.003,1c-0.025,0.134-0.035,0.309-0.014,0.479l0.413,3.199
		l-0.92,0.118l-0.401-3.104c-0.105-0.822-0.548-1.376-1.265-1.283c-0.589,0.076-0.956,0.603-1.044,1.093
		c-0.035,0.146-0.037,0.31-0.017,0.47l0.402,3.125l-0.92,0.118L53.119,14.552z"/>
	<path fill="#010101" d="M62.746,14.69c0.187,1.271,1.066,1.689,2.009,1.568c0.674-0.087,1.064-0.257,1.398-0.452L66.4,16.46
		c-0.312,0.191-0.855,0.437-1.681,0.543c-1.595,0.206-2.683-0.72-2.884-2.281s0.56-2.911,2.067-3.105
		c1.69-0.219,2.332,1.211,2.455,2.161c0.024,0.193,0.022,0.347,0.024,0.443L62.746,14.69z M65.42,13.66
		c-0.067-0.602-0.444-1.498-1.504-1.361c-0.951,0.123-1.257,1.055-1.246,1.716L65.42,13.66z"/>
	<path fill="#010101" d="M67.407,12.707c-0.067-0.534-0.136-0.973-0.224-1.396l0.835-0.107l0.164,0.85l0.021-0.003
		c0.193-0.525,0.73-1.084,1.588-1.194c0.717-0.093,1.885,0.191,2.112,1.968l0.399,3.093l-0.941,0.121l-0.385-2.984
		c-0.108-0.835-0.509-1.49-1.396-1.376c-0.619,0.08-1.045,0.581-1.139,1.126c-0.026,0.124-0.026,0.287-0.007,0.447l0.402,3.112
		l-0.942,0.122L67.407,12.707z"/>
	<path fill="#010101" d="M77.987,13.745c0.068,0.535,0.141,1.005,0.227,1.406l-0.835,0.107l-0.162-0.839l-0.021,0.003
		c-0.191,0.449-0.668,1.066-1.588,1.185c-0.812,0.105-1.845-0.219-2.08-2.036l-0.391-3.028l0.94-0.122l0.37,2.868
		c0.127,0.982,0.514,1.607,1.368,1.498c0.632-0.082,1.014-0.577,1.131-1.018c0.035-0.146,0.045-0.32,0.023-0.492L76.56,10.1
		l0.94-0.122L77.987,13.745z M76.571,7.826l-1.107,1.697L74.789,9.61l0.743-1.649L76.571,7.826z"/>
</g>
</svg>
